<?xml version="1.0" standalone="no"?>
<!DOCTYPE svg PUBLIC "-//W3C//DTD SVG 20010904//EN"
 "http://www.w3.org/TR/2001/REC-SVG-20010904/DTD/svg10.dtd">
<svg version="1.0" xmlns="http://www.w3.org/2000/svg"
 width="62.000000pt" height="545.000000pt" viewBox="0 0 62.000000 545.000000"
 preserveAspectRatio="xMidYMid meet">

<g transform="translate(0.000000,545.000000) scale(0.100000,-0.100000)"
fill="#000000" stroke="none">
<path d="M2 2723 c2 -1501 4 -2626 5 -2500 2 125 6 227 8 227 3 0 13 -4 23 -9
9 -5 31 -13 47 -18 17 -5 29 -15 27 -23 -2 -7 10 -27 26 -44 44 -46 55 -75 55
-138 0 -58 0 -58 31 -59 25 -1 23 -3 -13 -9 -45 -7 -61 -21 -93 -79 -12 -22
-24 -31 -43 -31 -25 0 -34 14 -15 25 13 8 13 25 1 25 -14 0 -41 -30 -41 -45 0
-43 107 -35 151 11 12 13 28 24 35 24 7 0 17 8 23 18 9 16 11 16 28 -3 10 -11
24 -32 30 -47 17 -37 49 -37 66 -1 6 16 20 37 30 48 17 19 19 19 28 2 6 -9 15
-17 21 -17 5 0 23 -11 40 -25 38 -32 101 -49 128 -35 24 13 26 33 4 54 -22 23
-37 20 -24 -5 14 -26 8 -33 -23 -25 -14 3 -30 18 -37 35 -17 41 -44 63 -88 71
l-37 8 33 1 32 1 -6 52 c-6 54 -2 65 54 176 10 19 27 35 42 38 14 3 35 10 48
16 31 16 30 61 -3 82 -35 23 -39 20 -15 -11 l21 -28 -21 -17 c-37 -30 -64 -23
-104 29 -20 25 -36 52 -36 59 0 20 -59 64 -86 64 -21 0 -23 4 -18 24 3 13 0
35 -7 47 -6 13 -12 38 -11 56 1 18 -3 33 -8 33 -6 0 -10 -9 -10 -20 0 -10 -8
-35 -17 -54 -15 -33 -15 -37 0 -54 22 -24 21 -32 -3 -32 -35 0 -67 -22 -84
-57 -28 -58 -77 -113 -102 -113 -12 0 -32 9 -45 19 l-24 19 24 26 c28 30 22
34 -14 10 l-25 -16 0 73 0 74 47 -4 c89 -7 130 -4 161 14 38 23 52 53 52 115
0 50 0 50 33 50 l33 0 0 -53 c2 -109 47 -137 204 -125 44 3 44 4 53 47 18 89
-19 151 -89 151 -25 0 -38 -7 -53 -29 -23 -32 -27 -56 -11 -66 6 -3 10 5 10
18 0 14 7 27 15 31 9 3 15 0 15 -9 0 -9 6 -12 15 -9 11 5 15 -1 15 -18 0 -28
17 -48 42 -48 27 0 21 -12 -18 -37 -41 -27 -94 -32 -74 -8 18 21 5 32 -47 40
-27 4 -51 12 -55 18 -13 20 -8 81 7 101 20 26 19 33 -5 41 -33 10 -26 54 10
66 40 15 66 61 78 142 14 91 38 131 80 135 40 4 53 -20 27 -48 -21 -24 -4 -27
19 -4 22 22 20 41 -9 69 -33 34 -55 31 -95 -10 -30 -31 -35 -33 -43 -19 -9 15
-11 14 -23 -7 -7 -13 -13 -30 -14 -36 0 -7 -9 -22 -20 -33 -13 -13 -20 -33
-20 -61 0 -33 -3 -40 -17 -37 -14 2 -19 15 -21 52 -2 27 2 54 7 59 14 14 14
54 0 62 -6 4 4 14 23 23 29 15 33 23 36 60 3 39 5 42 25 36 21 -6 21 -5 5 11
-14 15 -21 16 -49 6 -17 -6 -36 -11 -40 -11 -15 0 -10 57 7 70 8 8 20 22 26
33 9 18 8 19 -16 13 -22 -5 -26 -3 -26 14 0 68 63 128 123 116 17 -4 36 -1 45
6 12 10 19 7 39 -17 22 -28 25 -29 37 -12 20 26 28 20 20 -16 -4 -17 -8 -50
-8 -72 -1 -36 -4 -40 -26 -40 -19 0 -26 6 -28 24 -2 13 -12 26 -23 28 -12 3
-18 11 -15 19 8 22 -10 25 -34 6 -30 -25 -29 -67 3 -99 20 -21 31 -24 59 -19
18 3 46 16 62 29 25 21 29 31 33 94 5 66 4 73 -19 96 -29 29 -122 52 -168 42
-30 -7 -64 -41 -75 -76 -8 -25 -25 -25 -18 0 6 22 -16 39 -27 21 -5 -7 -6 -20
-3 -29 3 -9 -7 -1 -22 17 -49 60 -116 78 -175 47 -61 -32 -80 -81 -64 -165 12
-58 101 -90 152 -54 30 21 30 77 0 98 -24 17 -40 13 -31 -9 3 -9 -1 -15 -11
-15 -8 0 -20 -9 -26 -20 -6 -11 -21 -20 -33 -20 -21 0 -23 5 -24 49 -1 41 3
51 22 61 13 7 27 10 33 6 5 -3 21 4 36 15 24 19 27 19 42 5 8 -9 25 -16 37
-16 12 0 27 -4 34 -8 15 -10 33 -56 33 -87 0 -18 -4 -22 -20 -18 -25 7 -25 -7
0 -40 26 -33 28 -82 3 -72 -43 16 -70 16 -82 1 -12 -14 -11 -16 10 -14 22 3
24 -1 27 -40 3 -37 8 -45 32 -55 24 -10 27 -16 18 -31 -7 -13 -7 -26 1 -43 14
-30 15 -123 1 -123 -6 0 -8 15 -4 39 7 43 -10 85 -30 78 -8 -3 -20 9 -30 29
-9 19 -21 32 -26 29 -6 -4 -22 7 -36 24 -14 17 -35 31 -46 31 -22 0 -60 -18
-70 -34 -13 -19 -9 -53 7 -66 20 -16 32 -5 16 14 -14 17 -7 52 12 59 20 7 55
-10 72 -36 8 -13 20 -51 26 -83 18 -96 39 -145 69 -162 19 -11 27 -23 27 -44
0 -17 -6 -28 -14 -28 -22 0 -26 -27 -9 -52 18 -26 21 -61 6 -88 -7 -13 -26
-21 -61 -26 -47 -6 -50 -9 -46 -30 6 -33 -27 -32 -78 3 l-40 27 32 8 c32 8 51
38 37 59 -4 8 0 9 15 4 15 -4 21 -2 21 9 0 26 28 7 33 -22 4 -25 4 -25 6 4 1
36 -33 74 -68 74 -27 0 -77 -25 -84 -42 -3 -7 -6 283 -6 645 l-1 658 21 -11
c27 -15 69 -4 69 16 0 12 -6 15 -22 11 -56 -15 -82 49 -28 70 25 10 36 9 60
-5 16 -9 31 -26 32 -37 2 -15 12 -21 36 -23 30 -3 32 -5 16 -16 -19 -15 -11
-36 14 -36 24 -1 65 -39 81 -75 l14 -30 10 29 c11 34 54 75 78 76 26 0 30 12
12 33 -17 19 -17 20 5 14 33 -8 52 2 52 27 0 14 10 26 30 35 58 25 118 -23 75
-59 -8 -7 -24 -10 -35 -7 -26 7 -38 -13 -16 -28 40 -30 93 20 82 78 -11 59
-98 87 -164 53 -44 -23 -102 -95 -115 -143 -6 -24 -14 -43 -18 -43 -4 0 -11
19 -17 43 -25 99 -122 176 -204 163 -23 -4 -47 -14 -54 -24 -11 -14 -13 35
-14 286 l0 302 33 1 c17 0 25 3 17 6 -8 2 -21 7 -29 9 -12 4 -12 7 1 20 21 22
56 9 69 -24 6 -15 16 -59 24 -99 23 -121 67 -162 176 -165 104 -3 117 11 174
186 34 101 50 122 86 111 26 -8 20 -27 -12 -37 -19 -5 -17 -6 11 -5 43 2 51
31 21 68 -18 22 -22 23 -52 12 -24 -10 -35 -10 -40 -1 -9 14 -39 3 -39 -15 0
-7 -9 -30 -20 -52 -11 -22 -20 -49 -20 -60 0 -30 -11 -38 -25 -18 -11 15 -15
15 -30 3 -9 -7 -23 -27 -32 -43 l-15 -30 -22 39 c-24 44 -56 58 -56 25 0 -11
9 -25 20 -31 45 -24 69 -140 28 -140 -22 0 -60 50 -55 72 3 10 2 20 -3 23 -4
2 -10 30 -14 61 -3 31 -15 69 -26 84 -11 16 -20 34 -20 42 0 8 -6 23 -14 33
-11 16 -17 17 -29 7 -12 -10 -20 -10 -42 0 -21 9 -31 9 -46 0 -19 -12 -19 -6
-19 260 1 190 4 268 11 256 5 -10 18 -18 27 -18 16 1 16 1 0 11 -26 15 -22 48
7 61 50 22 78 -17 115 -159 16 -64 55 -91 130 -91 83 0 111 24 136 115 23 89
40 121 69 135 56 25 107 -43 53 -70 l-23 -11 22 0 c32 -1 45 30 34 80 -12 52
-26 61 -68 44 -18 -8 -33 -10 -33 -4 0 5 -9 18 -20 29 -25 25 -49 27 -27 2 15
-17 15 -21 -8 -65 -14 -25 -25 -53 -25 -62 0 -17 -16 -20 -25 -5 -14 22 -25 8
-25 -31 0 -28 -6 -46 -17 -54 -15 -11 -15 -15 -4 -29 16 -19 6 -69 -12 -63
-17 5 -21 122 -6 175 6 24 21 54 32 68 25 33 16 40 -22 18 -30 -18 -32 -18
-62 0 -36 21 -50 14 -25 -13 41 -45 65 -232 31 -245 -20 -7 -31 39 -14 60 11
14 11 18 -4 29 -11 8 -17 26 -17 54 0 40 -11 53 -26 29 -6 -10 -21 24 -51 114
-4 12 2 21 18 28 l24 10 -25 -3 c-17 -1 -30 -12 -41 -34 l-16 -32 -21 24 c-34
39 -58 33 -71 -20 -6 -25 -13 -45 -16 -45 -3 0 -5 47 -5 105 l0 104 24 -24
c33 -33 66 -39 109 -22 72 31 86 101 26 133 -44 22 -63 13 -44 -23 14 -26 13
-28 -10 -43 -14 -8 -25 -20 -25 -27 0 -14 -10 -16 -34 -7 -9 3 -16 13 -16 21
0 8 -7 21 -15 29 -8 9 -15 21 -15 27 0 12 44 37 65 37 6 0 22 14 37 30 33 37
44 38 43 3 0 -21 5 -28 20 -29 28 0 68 -19 84 -38 17 -20 9 -114 -10 -127 -10
-6 -3 -9 21 -10 28 -1 30 -3 10 -6 -39 -7 -48 -23 -15 -24 17 0 24 -3 17 -6
-18 -7 -15 -37 7 -50 16 -10 22 -8 36 7 9 10 14 24 10 30 -4 7 -1 16 6 21 10
6 8 11 -11 19 l-25 10 28 -4 c23 -3 27 0 22 13 -14 33 -17 89 -6 109 7 12 30
26 59 34 36 10 48 19 50 36 4 27 16 28 42 2 11 -11 38 -28 60 -37 43 -19 49
-33 25 -53 -8 -7 -15 -20 -15 -30 0 -10 -7 -23 -16 -31 -13 -10 -17 -10 -25 2
-5 8 -9 19 -9 26 0 7 -6 10 -14 7 -18 -7 -29 26 -20 60 5 22 3 26 -15 26 -26
0 -71 -42 -71 -65 0 -49 85 -104 133 -86 100 38 103 196 5 236 -53 21 -108 12
-150 -23 -41 -35 -58 -79 -58 -150 0 -57 -1 -59 -24 -55 -22 5 -24 9 -23 61 2
111 -60 182 -158 182 -45 0 -58 -5 -84 -29 l-31 -29 1 456 c1 252 5 438 8 415
12 -70 45 -89 106 -61 34 15 32 26 -5 20 -38 -5 -60 12 -60 49 0 21 7 32 30
44 40 21 66 19 103 -7 42 -29 54 -44 82 -103 27 -55 33 -87 13 -67 -34 34
-127 -19 -169 -95 -31 -55 -27 -63 21 -38 35 18 70 61 70 87 0 11 5 18 13 16
22 -8 19 -40 -6 -66 -38 -40 -49 -76 -31 -98 13 -15 15 -16 11 -3 -4 11 8 28
35 49 35 28 39 36 34 62 -5 25 -3 29 10 24 9 -3 20 -6 25 -6 5 0 3 -13 -6 -30
-18 -36 -19 -87 -1 -120 12 -21 12 -26 -2 -36 -9 -6 -13 -18 -9 -28 7 -18 25
-20 47 -6 13 8 13 13 2 30 -10 17 -11 29 -1 57 6 20 9 57 6 84 -3 27 -2 49 3
49 16 0 70 52 70 67 0 12 -10 14 -45 11 -41 -3 -44 -1 -39 17 24 83 94 165
141 165 30 0 71 -19 77 -37 9 -23 -5 -63 -25 -74 -14 -7 -27 -5 -49 6 -16 9
-30 11 -30 6 0 -28 74 -40 113 -19 36 19 47 40 43 84 -4 49 -25 84 -49 84 -10
0 -15 5 -12 11 9 14 -3 59 -15 59 -6 0 -10 -8 -10 -19 0 -13 -15 -25 -49 -39
-40 -16 -51 -26 -61 -56 l-12 -37 -25 27 -26 28 47 39 c35 30 46 46 46 68 0
24 -5 29 -32 33 -18 3 -40 5 -48 5 -8 1 -35 2 -58 4 -24 1 -46 -1 -49 -5 -2
-5 -17 -8 -34 -8 -22 0 -29 -5 -29 -19 0 -37 20 -71 47 -82 48 -18 56 -30 33
-46 -19 -13 -23 -12 -41 11 -12 15 -39 36 -60 47 -33 16 -39 24 -34 40 6 18 4
19 -13 10 -21 -11 -35 -38 -27 -51 3 -5 -4 -11 -15 -15 -11 -3 -29 -18 -40
-32 l-20 -26 0 362 0 361 144 0 145 0 -9 -31 c-10 -35 2 -69 25 -69 17 0 29
40 23 75 l-5 24 146 4 c80 1 5 4 -166 5 l-313 2 2 -2727z m318 2672 c0 -19 -4
-35 -10 -35 -11 0 -14 53 -3 63 11 12 13 8 13 -28z m-50 -542 c0 -16 3 -38 6
-50 7 -27 -20 -33 -30 -7 -8 21 -8 69 1 77 14 14 23 6 23 -20z m60 -2 c0 -59
-23 -81 -40 -37 -12 33 -2 66 21 66 14 0 19 -7 19 -29z m42 -19 c-9 -20 -25
-50 -35 -65 -16 -23 -22 -26 -34 -16 -12 11 -11 14 10 25 17 9 26 25 31 53 5
36 21 54 38 44 4 -2 0 -20 -10 -41z m-152 21 c0 -10 3 -29 6 -43 5 -24 5 -24
-10 -6 -18 22 -22 66 -6 66 6 0 10 -8 10 -17z m200 -2 c0 -5 -9 -19 -20 -32
-21 -26 -27 -11 -10 22 11 19 30 26 30 10z m-273 -71 c14 0 77 -59 71 -66 -3
-3 -22 3 -41 12 -34 16 -39 16 -79 1 -28 -11 -45 -14 -52 -7 -14 14 22 39 58
40 28 0 28 1 13 18 -23 25 -22 39 1 19 10 -10 23 -17 29 -17z m368 -10 c-5
-15 -2 -20 12 -20 29 0 60 -26 48 -39 -8 -8 -23 -5 -50 10 -39 19 -59 20 -99
4 -16 -7 -17 -6 -9 10 8 14 53 38 101 54 2 1 0 -8 -3 -19z m-205 -66 c0 -13
-3 -14 -14 -5 -11 10 -20 10 -38 0 -21 -11 -22 -11 -9 4 18 22 61 22 61 1z
m48 -7 c2 -12 -1 -15 -12 -11 -19 7 -22 38 -3 32 6 -3 13 -12 15 -21z m-317
-28 c-9 -23 -10 -22 -10 11 -1 23 2 31 9 24 7 -7 7 -19 1 -35z m249 10 c0 -6
9 -9 19 -6 22 5 49 -8 38 -19 -11 -11 -77 -8 -89 4 -6 6 -7 15 -4 21 9 14 36
14 36 0z m294 -8 c3 -5 -2 -19 -13 -32 l-18 -23 5 32 c4 31 15 41 26 23z
m-524 -62 c0 -6 -4 -7 -10 -4 -5 3 -10 11 -10 16 0 6 5 7 10 4 6 -3 10 -11 10
-16z m240 5 c0 -8 -4 -12 -10 -9 -5 3 -10 10 -10 16 0 5 5 9 10 9 6 0 10 -7
10 -16z m34 1 c-4 -8 -8 -15 -10 -15 -2 0 -4 7 -4 15 0 8 4 15 10 15 5 0 7 -7
4 -15z m-54 -100 c16 -19 29 -19 52 2 17 15 18 15 18 -3 1 -19 1 -19 15 0 8
11 18 16 22 12 9 -9 -42 -56 -61 -56 -21 0 -86 29 -86 38 0 24 23 28 40 7z
m-94 -53 c-17 -32 -44 -58 -52 -49 -12 11 37 77 57 77 5 0 3 -13 -5 -28z m45
-65 c-29 -29 -36 -16 -9 18 14 18 23 24 26 16 2 -7 -5 -22 -17 -34z m94 -27
c-4 -16 -11 -32 -16 -35 -10 -7 -13 78 -2 89 12 12 25 -24 18 -54z m-5 -110
c0 -5 -5 -10 -11 -10 -5 0 -7 5 -4 10 3 6 8 10 11 10 2 0 4 -4 4 -10z m-186
-440 c-12 -5 -29 -18 -37 -30 -11 -16 -16 -18 -20 -8 -4 9 -11 6 -27 -11 -24
-28 -31 -25 -19 7 10 25 60 51 99 51 24 0 24 -1 4 -9z m433 -35 c34 -39 28
-53 -9 -19 -24 23 -30 25 -24 9 7 -18 5 -18 -17 3 -25 23 -100 32 -112 12 -4
-6 5 -10 19 -10 14 0 26 -5 26 -11 0 -6 -7 -8 -17 -5 -9 4 -19 3 -22 -2 -3 -5
-17 -13 -29 -17 -21 -6 -22 -5 -14 12 26 47 63 64 132 58 33 -2 50 -10 67 -30z
m-339 0 c-11 -9 -58 -14 -58 -6 0 10 39 20 53 13 5 -2 7 -5 5 -7z m17 -25 c3
-5 1 -10 -4 -10 -6 0 -11 5 -11 10 0 6 2 10 4 10 3 0 8 -4 11 -10z m-73 -47
c10 -9 18 -26 18 -39 0 -27 -47 -64 -81 -64 -29 0 -13 18 21 23 30 5 34 16 21
61 -10 40 -6 44 21 19z m286 -29 c-10 -37 -3 -59 11 -35 6 9 10 7 14 -9 3 -12
10 -19 15 -16 6 3 12 -1 16 -9 8 -21 -22 -19 -61 5 -25 15 -33 27 -33 49 0 18
7 34 18 40 28 17 31 13 20 -25z m-140 -165 c-2 -6 -8 -10 -13 -10 -5 0 -11 4
-13 10 -2 6 4 11 13 11 9 0 15 -5 13 -11z m-228 -24 c11 -13 8 -15 -14 -15
-16 0 -26 5 -26 15 0 8 6 15 14 15 7 0 19 -7 26 -15z m377 -43 c-9 -9 -19 -29
-22 -45 -4 -15 -12 -30 -18 -34 -17 -10 -1 49 25 93 17 30 24 34 26 21 2 -10
-3 -26 -11 -35z m100 32 c2 -7 -6 -10 -21 -7 -14 3 -23 10 -20 15 8 12 36 6
41 -8z m-402 -24 c16 -30 20 -80 8 -80 -12 0 -39 73 -35 93 5 24 9 22 27 -13z
m150 -30 c-4 -14 -9 -27 -11 -29 -6 -7 -12 2 -19 29 -5 21 -3 26 15 26 18 0
20 -5 15 -26z m-87 -72 c-2 -17 -9 -22 -23 -20 -29 5 -31 10 -9 27 27 20 36
18 32 -7z m175 8 c21 -16 22 -30 2 -22 -10 3 -15 -1 -15 -12 0 -15 -2 -15 -10
-2 -12 18 -13 50 -2 50 4 0 15 -7 25 -14z m-163 -92 c0 -39 -18 -43 -31 -6 -6
16 -5 22 6 22 8 0 15 5 15 10 0 6 2 10 5 10 3 0 5 -16 5 -36z m146 16 c12 0
12 -6 -3 -32 l-17 -33 -6 35 c-6 34 0 66 8 42 2 -7 10 -12 18 -12z m179 -410
c3 -6 -4 -10 -17 -10 -18 0 -20 2 -8 10 19 12 18 12 25 0z m-498 -6 c-3 -3
-12 -4 -19 -1 -8 3 -5 6 6 6 11 1 17 -2 13 -5z m73 -7 c0 -7 9 -30 20 -52 11
-21 19 -40 17 -41 -1 -1 -14 8 -29 19 -26 22 -32 35 -29 70 1 19 21 24 21 4z
m340 -46 c-5 -10 -21 -26 -36 -36 l-26 -17 20 38 c11 22 23 48 27 59 7 19 7
19 16 -3 5 -14 5 -31 -1 -41z m-315 -61 c22 -24 18 -31 -12 -19 -13 5 -23 15
-23 24 0 21 13 19 35 -5z m299 -3 c-3 -8 -12 -18 -20 -21 -20 -8 -18 21 3 33
21 12 25 9 17 -12z m-204 -27 c0 -5 -2 -10 -4 -10 -3 0 -8 5 -11 10 -3 6 -1
10 4 10 6 0 11 -4 11 -10z m-64 -46 c3 -13 3 -27 0 -33 -4 -6 1 -23 11 -38
l17 -28 -28 25 c-29 25 -56 76 -56 104 0 24 49 -2 56 -30z m198 14 c-3 -13
-12 -29 -18 -37 -6 -8 -11 -30 -11 -50 0 -30 -4 -37 -22 -39 -21 -3 -23 1 -23
43 0 38 5 52 29 76 36 35 55 38 45 7z m50 0 c-3 -13 -14 -31 -23 -41 -8 -11
-16 -24 -16 -30 0 -7 -4 -14 -10 -17 -17 -8 -17 36 0 50 8 7 15 21 15 30 0 17
12 27 33 29 5 1 5 -9 1 -21z m56 -479 c0 -6 -18 -18 -40 -26 -40 -16 -53 -33
-24 -33 8 0 12 -4 9 -10 -3 -5 -20 -10 -37 -10 -24 0 -29 -4 -26 -17 3 -11 -6
-27 -24 -41 -15 -13 -28 -18 -28 -12 0 21 38 85 67 112 41 39 103 61 103 37z
m-298 -36 c37 -39 73 -101 64 -110 -10 -10 -51 32 -51 52 0 15 -7 20 -29 20
-16 0 -31 6 -34 13 -2 7 0 12 5 11 20 -3 25 2 13 16 -7 8 -21 15 -31 15 -10 0
-21 5 -24 10 -4 6 6 10 22 10 20 0 40 -11 65 -37z m23 -583 c8 -7 15 -16 15
-21 0 -15 -19 -10 -40 11 -25 25 -25 25 -61 -1 -16 -11 -29 -16 -29 -10 0 5
-3 16 -6 24 -10 28 87 25 121 -3z m326 4 c15 -14 16 -18 4 -30 -12 -12 -18
-11 -40 12 -21 21 -29 23 -40 14 -8 -7 -26 -9 -39 -6 -14 3 -36 2 -51 -4 -27
-10 -27 -5 -1 29 15 19 142 8 167 -15z m-471 -20 c0 -8 -5 -12 -10 -9 -6 4 -8
11 -5 16 9 14 15 11 15 -7z m230 -64 c0 -5 -2 -10 -4 -10 -3 0 -8 5 -11 10 -3
6 -1 10 4 10 6 0 11 -4 11 -10z m-120 -61 c0 -11 -4 -17 -10 -14 -5 3 -10 15
-10 26 0 11 5 17 10 14 6 -3 10 -15 10 -26z m251 -12 c-13 -13 -15 1 -4 30 7
17 8 17 11 -1 2 -10 -1 -23 -7 -29z m-271 -22 c0 -16 -38 -26 -68 -18 -30 7
-28 23 3 23 14 0 28 7 31 15 5 12 10 13 20 4 8 -6 14 -17 14 -24z m327 -27
c-14 -9 -47 9 -47 25 0 7 5 18 12 25 9 9 15 5 28 -16 11 -18 13 -29 7 -34z
m-180 16 c-3 -3 -12 -4 -19 -1 -8 3 -5 6 6 6 11 1 17 -2 13 -5z m-41 -107 c16
6 20 -22 5 -32 -11 -6 -41 21 -41 38 0 8 3 8 11 0 6 -6 18 -9 25 -6z m69 -23
c-21 -15 -35 -10 -35 13 0 9 6 13 15 10 8 -4 18 -1 22 5 5 9 8 8 11 -2 3 -7
-3 -19 -13 -26z m-77 -33 c3 -8 -1 -12 -9 -9 -7 2 -15 10 -17 17 -3 8 1 12 9
9 7 -2 15 -10 17 -17z m42 -15 c-15 -15 -33 4 -19 20 10 12 14 12 20 2 5 -7 4
-17 -1 -22z m45 15 c-3 -6 -11 -8 -17 -5 -6 4 -5 9 3 15 16 10 23 4 14 -10z
m-42 -88 c-4 -10 -9 -11 -16 -4 -5 5 -7 18 -3 28 6 14 9 15 16 4 4 -8 6 -21 3
-28z m137 5 c0 -4 -4 -10 -10 -13 -5 -3 -10 -23 -11 -43 -2 -56 -11 -77 -36
-78 -20 0 -23 4 -23 41 0 51 10 63 27 33 11 -21 12 -19 13 24 0 40 3 47 20 45
11 -1 20 -5 20 -9z m-240 -48 c0 -27 5 -50 10 -50 6 0 10 14 10 30 0 20 5 30
16 30 12 0 14 -10 12 -47 -3 -39 -6 -47 -25 -48 -16 -1 -23 6 -28 29 -10 48
-12 106 -3 106 4 0 8 -22 8 -50z m62 -143 l23 -32 -33 23 c-17 13 -32 30 -32
38 0 20 14 10 42 -29z m46 15 c2 -14 -2 -22 -11 -22 -17 0 -30 27 -21 41 9 16
29 4 32 -19z m62 18 c5 8 12 11 16 8 11 -12 -5 -40 -26 -45 -11 -3 -20 -9 -20
-14 0 -5 -8 -9 -17 -9 -13 0 -14 3 -5 12 7 7 12 23 12 36 0 21 2 23 16 11 13
-10 17 -10 24 1z m-63 -127 c-10 -23 -12 -24 -24 -7 -16 22 -17 41 0 47 24 9
37 -12 24 -40z m-40 -29 c-3 -3 -12 -4 -19 -1 -8 3 -5 6 6 6 11 1 17 -2 13 -5z
m80 0 c-3 -3 -12 -4 -19 -1 -8 3 -5 6 6 6 11 1 17 -2 13 -5z m-232 -34 c-3 -5
-20 -10 -37 -10 -21 0 -31 -6 -35 -20 -6 -23 -23 -27 -23 -6 0 25 30 46 66 46
21 0 33 -4 29 -10z m440 -10 c13 -15 15 -24 8 -31 -8 -8 -13 -5 -18 10 -4 15
-15 21 -35 21 -16 0 -32 5 -35 10 -12 20 61 11 80 -10z m-501 -67 c-24 -17
-44 -17 -44 2 0 8 9 15 19 15 11 0 23 5 27 12 6 9 9 9 12 -2 3 -7 -3 -19 -14
-27z m494 21 c30 -15 43 -34 23 -34 -24 0 -61 21 -61 35 0 19 0 19 38 -1z
m-337 -74 c-24 -21 -43 -25 -55 -13 -4 4 10 13 31 19 51 16 51 16 24 -6z m203
0 c26 -6 28 -8 13 -15 -19 -8 -67 11 -67 27 0 5 5 6 12 2 6 -4 25 -10 42 -14z
m-101 -41 c-14 -14 -37 17 -29 38 6 14 9 14 23 -6 10 -15 12 -26 6 -32z m-263
19 c0 -13 -23 -5 -28 10 -2 7 2 10 12 6 9 -3 16 -11 16 -16z m512 0 c-6 -6
-15 -8 -19 -4 -4 4 -1 11 7 16 19 12 27 3 12 -12z m-268 -76 c6 -10 -8 -33
-20 -35 -5 -1 -8 -6 -6 -10 4 -13 -18 -48 -28 -42 -6 4 -8 80 -1 93 3 6 50 1
55 -6z m81 -37 c1 -22 -1 -44 -3 -48 -7 -15 -32 16 -32 40 0 13 -4 22 -9 19
-11 -7 -23 19 -13 28 3 4 18 6 32 4 22 -3 25 -8 25 -43z m-158 3 c-3 -8 -6 -5
-6 6 -1 11 2 17 5 13 3 -3 4 -12 1 -19z m180 0 c-3 -8 -6 -5 -6 6 -1 11 2 17
5 13 3 -3 4 -12 1 -19z m15 -30 c-7 -7 -12 -8 -12 -2 0 6 3 14 7 17 3 4 9 5
12 2 2 -3 -1 -11 -7 -17z m-202 2 c0 -5 -2 -10 -4 -10 -3 0 -8 5 -11 10 -3 6
-1 10 4 10 6 0 11 -4 11 -10z m127 -21 c9 -23 17 -30 28 -25 16 6 75 -30 75
-46 0 -4 -66 -8 -147 -8 l-146 0 41 30 c24 17 48 27 57 24 11 -5 19 3 28 25
16 42 48 42 64 0z m-142 -17 c0 -18 -20 -15 -23 4 -3 10 1 15 10 12 7 -3 13
-10 13 -16z m245 3 c0 -8 -7 -15 -15 -15 -16 0 -20 12 -8 23 11 12 23 8 23 -8z
m-280 -35 c0 -5 -5 -10 -11 -10 -5 0 -7 5 -4 10 3 6 8 10 11 10 2 0 4 -4 4
-10z m305 0 c3 -5 1 -10 -4 -10 -6 0 -11 5 -11 10 0 6 2 10 4 10 3 0 8 -4 11
-10z m-75 -51 c-47 -4 -128 -7 -180 -6 l-95 1 95 6 c52 3 133 6 180 7 l85 0
-85 -8z m-13 -26 c-31 -2 -83 -2 -115 0 -31 2 -5 3 58 3 63 0 89 -1 57 -3z
m-17 -23 c0 -5 -4 -10 -10 -10 -5 0 -10 5 -10 10 0 6 5 10 10 10 6 0 10 -4 10
-10z m60 1 c0 -6 -4 -13 -10 -16 -5 -3 -10 1 -10 9 0 9 5 16 10 16 6 0 10 -4
10 -9z m-240 -5 c0 -11 -19 -15 -25 -6 -3 5 1 10 9 10 9 0 16 -2 16 -4z m32
-68 c-9 -35 -22 -17 -21 30 1 47 1 47 13 18 8 -16 11 -37 8 -48z m52 7 l-7
-48 -13 32 c-10 24 -11 37 -2 57 17 37 31 13 22 -41z m70 49 c3 -9 1 -35 -5
-58 l-12 -41 -13 44 c-10 33 -11 48 -3 58 15 17 26 16 33 -3z m66 -34 c0 -9
-6 -24 -13 -35 -13 -16 -14 -15 -20 19 -3 20 -3 44 0 53 5 14 8 14 20 -3 7
-10 13 -25 13 -34z m45 13 c-8 -32 -13 -39 -21 -30 -10 9 5 57 17 57 7 0 9
-10 4 -27z m-140 -100 c6 -39 5 -43 -14 -43 -18 0 -21 6 -21 38 0 20 3 48 7
61 6 22 7 23 13 5 4 -10 11 -38 15 -61z m58 16 c7 -56 3 -69 -19 -69 -15 0
-18 35 -8 89 9 46 20 38 27 -20z m56 -36 c1 -23 -4 -33 -14 -33 -16 0 -19 27
-8 81 7 33 7 33 14 9 4 -14 7 -40 8 -57z m-176 15 c5 -31 3 -38 -11 -38 -14 0
-17 8 -13 46 4 52 16 48 24 -8z m181 -86 c31 -6 44 -15 59 -40 23 -40 17 -52
-12 -23 -12 12 -27 21 -34 21 -7 0 -18 9 -24 19 -14 22 -53 18 -53 -6 0 -9 -6
-12 -18 -9 -16 5 -18 2 -14 -24 4 -26 1 -30 -18 -30 -20 0 -22 4 -16 31 5 25
3 30 -9 25 -9 -3 -18 1 -21 9 -4 8 -12 15 -20 15 -8 0 -14 5 -14 10 0 11 134
13 194 2z m-216 -22 c-7 -11 -18 -20 -24 -20 -6 0 -17 -7 -24 -16 -8 -8 -22
-20 -32 -25 -19 -10 -19 -9 -2 23 25 50 34 58 65 58 27 0 28 -2 17 -20z"/>
<path d="M102 5408 c-7 -7 -12 -18 -12 -26 0 -12 3 -12 15 -2 27 22 63 -4 90
-64 14 -31 39 -66 60 -83 19 -15 35 -33 35 -39 0 -6 -23 -16 -52 -22 -52 -12
-118 -47 -118 -62 0 -4 6 -13 14 -19 11 -10 20 -10 37 -1 13 7 19 8 15 2 -4
-6 3 -26 14 -44 25 -42 25 -59 -1 -92 -27 -34 -15 -51 25 -36 36 13 99 13 148
-2 51 -15 66 2 36 43 -23 31 -19 86 9 114 19 19 17 21 -33 39 -21 8 -32 15
-24 15 8 0 34 -8 58 -19 45 -20 72 -18 72 7 0 18 -74 51 -134 59 -53 8 -58 17
-17 39 35 18 64 56 80 108 15 45 61 77 61 42 0 -8 5 -15 10 -15 24 0 8 38 -20
50 -28 11 -34 10 -71 -16 -23 -16 -46 -41 -51 -56 -6 -16 -14 -28 -19 -28 -5
0 -9 -12 -9 -26 0 -30 -23 -28 -29 2 -2 10 -9 23 -17 27 -8 4 -14 17 -14 28 0
11 -8 22 -17 26 -10 4 -33 19 -51 35 -35 30 -70 36 -90 16z m326 -35 c-8 -10
-22 -39 -32 -66 -18 -47 -47 -77 -76 -77 -12 1 -12 3 3 11 9 5 17 19 17 29 0
11 4 20 9 20 5 0 11 10 13 23 2 12 9 21 16 19 7 -1 15 6 19 15 9 25 24 43 36
43 5 0 3 -8 -5 -17z m-163 -93 c6 0 13 -11 17 -25 6 -22 4 -24 -13 -14 -32 17
-60 70 -46 87 9 12 13 9 22 -17 5 -17 15 -31 20 -31z m158 -136 c26 -9 47 -20
47 -26 0 -6 -7 -7 -17 -3 -91 39 -180 40 -262 4 -45 -20 -72 -17 -36 4 67 40
187 49 268 21z m-146 -20 c-3 -3 -12 -4 -19 -1 -8 3 -5 6 6 6 11 1 17 -2 13
-5z m11 -57 c-7 -14 -13 -17 -16 -9 -6 19 6 44 18 37 7 -4 6 -14 -2 -28z m52
12 c0 -11 -4 -17 -10 -14 -5 3 -10 13 -10 21 0 8 5 14 10 14 6 0 10 -9 10 -21z
m-104 -37 c-12 -11 -18 7 -10 30 l8 23 4 -23 c2 -13 1 -26 -2 -30z m154 22 c0
-8 -4 -12 -10 -9 -5 3 -10 13 -10 21 0 8 5 12 10 9 6 -3 10 -13 10 -21z m-71
-61 c1 -17 -5 -23 -19 -23 -23 0 -24 5 -8 50 10 30 12 32 19 14 4 -10 8 -29 8
-41z m47 -8 c-4 -14 -11 -23 -16 -20 -12 7 -13 45 -3 71 6 16 7 16 16 -4 5
-11 7 -32 3 -47z m-96 8 c0 -29 -17 -38 -25 -13 -9 28 4 68 16 49 5 -8 9 -24
9 -36z m132 -62 c11 -11 8 -12 -17 -7 -71 16 -116 18 -146 7 -38 -13 -53 -6
-18 9 34 14 165 8 181 -9z"/>
<path d="M85 5260 c-15 -16 -15 -22 -5 -35 17 -21 37 -19 50 6 9 15 8 24 -1
35 -15 19 -22 18 -44 -6z m35 -15 c0 -8 -7 -15 -15 -15 -16 0 -20 12 -8 23 11
12 23 8 23 -8z"/>
<path d="M465 5260 c-15 -16 -15 -22 -5 -35 7 -8 18 -15 26 -15 20 0 34 32 23
53 -13 22 -22 21 -44 -3z m35 -9 c0 -12 -20 -25 -27 -18 -7 7 6 27 18 27 5 0
9 -4 9 -9z"/>
<path d="M430 4500 c0 -39 59 -105 105 -116 l30 -7 -30 35 c-16 19 -38 49 -47
67 -16 30 -58 45 -58 21z m58 -55 l12 -30 -25 30 c-26 32 -38 73 -12 45 7 -8
19 -28 25 -45z"/>
<path d="M377 4453 c-4 -3 -7 -13 -7 -22 0 -19 42 -110 52 -111 15 0 19 42 7
78 -17 54 -35 73 -52 55z m26 -20 c2 -5 7 -21 11 -38 l6 -30 -20 24 c-21 24
-27 51 -11 51 6 0 12 -3 14 -7z"/>
<path d="M52 4295 c-18 -13 -22 -25 -20 -53 2 -31 7 -38 28 -41 24 -3 25 -3 7
17 -18 19 -18 22 -2 46 17 26 35 26 35 0 0 -8 11 -14 28 -15 26 0 26 -1 5 -9
-30 -12 -29 -28 2 -40 13 -5 31 -22 38 -37 8 -15 25 -37 37 -48 34 -30 76 -96
83 -130 6 -26 5 -28 -6 -11 -6 10 -25 39 -42 64 -38 59 -108 98 -148 83 -35
-14 -36 -35 -1 -28 20 3 34 -4 64 -34 21 -22 45 -39 54 -39 13 0 13 -4 -2 -30
-16 -28 -16 -30 1 -47 15 -15 21 -16 38 -5 24 16 35 10 43 -24 8 -32 -10 -57
-35 -49 -11 4 -19 2 -19 -4 0 -5 9 -12 19 -16 13 -4 21 -19 25 -48 9 -56 26
-83 26 -41 0 17 11 47 24 67 24 35 24 36 5 42 -19 6 -24 30 -13 59 5 12 10 13
26 5 15 -8 24 -7 39 7 23 21 24 32 3 55 -14 16 -13 18 21 29 22 7 41 23 50 41
9 17 24 29 35 29 24 0 26 18 3 27 -38 15 -123 -52 -166 -132 -15 -28 -16 -28
-17 -7 0 24 55 117 84 141 10 8 24 27 32 43 8 15 21 28 28 28 7 0 19 7 26 15
10 12 8 16 -11 24 l-24 10 23 0 c15 1 26 8 29 21 7 27 17 25 33 -5 10 -20 11
-28 2 -37 -16 -16 -15 -28 3 -28 26 0 39 43 24 76 -16 34 -55 42 -100 23 -33
-13 -81 -70 -108 -125 l-18 -37 -11 32 c-15 42 -28 39 -44 -11 l-15 -43 -17
47 c-26 66 -102 146 -146 153 -24 4 -42 1 -58 -10z m88 -15 c8 -5 12 -12 9
-15 -8 -8 -39 5 -39 16 0 11 11 11 30 -1z m355 -10 c-3 -5 -13 -10 -21 -10 -8
0 -12 5 -9 10 3 6 13 10 21 10 8 0 12 -4 9 -10z m-291 -61 c36 -43 32 -53 -9
-24 -20 13 -41 26 -48 29 -9 3 -8 7 3 15 22 16 26 14 54 -20z m255 12 c11 -7
9 -12 -10 -21 -13 -7 -34 -20 -46 -28 -29 -18 -30 -3 -2 32 22 27 35 31 58 17z
m-211 -100 c25 -30 11 -32 -18 -3 -16 17 -30 34 -30 37 0 9 30 -13 48 -34z
m74 -61 c-6 -41 -19 -46 -27 -10 -6 29 1 84 13 105 9 14 20 -58 14 -95z m88
87 c0 -2 -13 -16 -30 -32 -16 -16 -30 -24 -30 -17 0 13 39 52 52 52 4 0 8 -1
8 -3z m-203 -82 c24 -21 25 -24 9 -25 -20 0 -56 27 -56 42 0 15 18 8 47 -17z
m242 3 c-14 -27 -28 -38 -49 -38 -9 1 -3 12 18 30 39 36 47 38 31 8z m-192
-102 c-8 -19 -37 -21 -37 -3 0 7 5 18 12 25 15 15 33 -1 25 -22z m130 8 c8
-21 -13 -42 -28 -27 -13 13 -5 43 11 43 6 0 13 -7 17 -16z m-70 -145 c-10 -16
-13 -16 -20 -3 -5 8 -6 22 -3 31 5 12 9 13 21 3 11 -9 12 -16 2 -31z"/>
<path d="M287 3160 c-9 -24 -17 -30 -40 -30 -26 0 -29 -2 -23 -26 l7 -26 -27
21 c-15 12 -39 21 -54 21 -35 0 -49 29 -23 48 17 13 17 14 -2 10 -34 -6 -30
-44 9 -83 44 -44 46 -57 7 -44 -60 21 -108 -12 -53 -36 13 -6 22 -19 22 -32 0
-38 65 -58 89 -29 10 12 8 15 -11 18 -15 2 -24 11 -26 26 -3 21 -1 22 17 12
19 -9 21 -8 21 13 0 33 18 47 62 47 42 0 51 -20 23 -56 -18 -24 -19 -34 -1
-34 31 0 34 -56 6 -102 -25 -41 -26 -99 -1 -129 l18 -23 18 27 c18 28 18 35
-2 170 -4 28 -1 43 12 57 17 19 17 21 2 38 -30 33 -22 52 21 52 43 0 62 -14
62 -47 0 -26 10 -29 29 -10 10 10 12 7 9 -13 -2 -17 -10 -26 -26 -28 -19 -3
-21 -6 -11 -18 22 -27 89 -9 89 23 0 10 12 27 27 38 44 36 3 60 -61 35 -33
-12 -33 -9 4 42 32 44 39 82 16 91 -10 4 -13 -3 -12 -25 1 -26 -4 -32 -28 -39
-15 -4 -36 -15 -46 -24 -16 -15 -17 -14 -13 10 5 21 2 25 -20 25 -13 0 -30 -7
-37 -15 -8 -9 -9 -15 -2 -15 6 0 14 5 17 10 9 15 25 12 25 -5 0 -8 -8 -15 -17
-15 -10 0 -28 -3 -39 -6 -29 -8 -40 36 -20 77 8 16 10 29 4 29 -5 0 -15 -13
-21 -30z m-17 -55 c10 -13 9 -15 -9 -15 -12 0 -21 6 -21 15 0 8 4 15 9 15 5 0
14 -7 21 -15z m-75 -16 c12 -19 -5 -23 -22 -6 -16 16 -16 17 -1 17 9 0 20 -5
23 -11z m265 1 c0 -12 -28 -25 -36 -17 -9 9 6 27 22 27 8 0 14 -5 14 -10z
m-315 -60 c4 -6 -6 -10 -24 -10 -16 0 -33 5 -36 10 -4 6 6 10 24 10 16 0 33
-4 36 -10z m390 0 c-3 -5 -20 -10 -36 -10 -18 0 -28 4 -24 10 3 6 20 10 36 10
18 0 28 -4 24 -10z m-210 -40 c-5 -8 -11 -8 -17 -2 -6 6 -7 16 -3 22 5 8 11 8
17 2 6 -6 7 -16 3 -22z m-175 -10 c9 -16 8 -20 -5 -20 -8 0 -15 9 -15 20 0 11
2 20 5 20 2 0 9 -9 15 -20z m340 0 c0 -11 -7 -20 -15 -20 -13 0 -14 4 -5 20 6
11 13 20 15 20 3 0 5 -9 5 -20z m-165 -143 c4 -18 1 -46 -6 -62 l-11 -30 -14
31 c-10 23 -10 41 -3 68 12 42 26 39 34 -7z"/>
<path d="M289 2540 c-7 -5 -14 -19 -14 -31 0 -20 -8 -24 -60 -35 -65 -12 -84
-19 -133 -49 -39 -24 -40 -39 -5 -62 26 -17 45 -21 150 -26 28 -1 55 -5 58 -9
4 -4 -2 -22 -13 -40 -20 -33 -20 -33 -1 -57 11 -13 19 -39 19 -58 0 -45 24
-39 28 7 2 19 10 43 17 53 12 17 11 23 -7 48 -32 43 -13 59 65 54 34 -2 67 1
74 6 7 6 17 8 22 4 17 -10 61 25 61 50 0 36 -41 57 -155 79 -54 11 -60 15 -63
38 -3 29 -21 41 -43 28z m21 -20 c0 -5 -4 -10 -10 -10 -5 0 -10 5 -10 10 0 6
5 10 10 10 6 0 10 -4 10 -10z m-46 -77 c-7 -26 -30 -37 -38 -18 -3 8 5 21 16
29 26 18 29 17 22 -11z m50 21 c20 -8 21 -43 1 -50 -24 -10 -47 14 -34 37 11
21 11 21 33 13z m66 -34 c0 -11 -7 -20 -15 -20 -8 0 -15 6 -15 14 0 8 -3 22
-7 31 -5 15 -3 16 15 6 12 -7 22 -21 22 -31z m-170 5 c0 -16 -6 -25 -15 -25
-28 0 -18 40 13 49 1 1 2 -10 2 -24z m208 13 c17 -17 15 -38 -3 -38 -8 0 -15
4 -15 9 0 5 -3 16 -6 25 -7 19 7 21 24 4z m-267 -51 c-16 -16 -26 20 -10 40
13 15 14 14 17 -7 2 -12 -1 -27 -7 -33z m317 25 c2 -14 -2 -22 -11 -22 -10 0
-14 9 -13 25 1 30 20 27 24 -3z m-358 -17 c0 -16 -27 -32 -37 -21 -7 7 16 36
28 36 5 0 9 -7 9 -15z m238 -11 c48 1 52 -1 52 -21 0 -25 -15 -29 -67 -14 -17
5 -34 7 -37 4 -10 -10 -85 -13 -90 -4 -18 28 36 57 74 40 8 -3 39 -6 68 -5z
m-223 -24 c-3 -5 -11 -10 -16 -10 -6 0 -7 5 -4 10 3 6 11 10 16 10 6 0 7 -4 4
-10z m50 -10 c3 -5 -1 -10 -9 -10 -9 0 -16 5 -16 10 0 6 4 10 9 10 6 0 13 -4
16 -10z m285 0 c0 -5 -7 -10 -16 -10 -8 0 -12 5 -9 10 3 6 10 10 16 10 5 0 9
-4 9 -10z m-142 -125 l-11 -24 -17 22 c-14 16 -16 27 -8 40 9 18 11 18 28 2
15 -14 17 -21 8 -40z"/>
<path d="M503 2535 c-7 -8 -13 -18 -13 -23 0 -9 33 -42 42 -42 12 0 17 44 7
62 -12 21 -20 22 -36 3z m27 -25 c0 -5 -4 -10 -10 -10 -5 0 -10 5 -10 10 0 6
5 10 10 10 6 0 10 -4 10 -10z"/>
<path d="M63 2521 c-9 -14 -9 -21 0 -30 27 -27 61 4 37 34 -16 20 -23 19 -37
-4z m31 -22 c-3 -5 -10 -7 -15 -3 -5 3 -7 10 -3 15 3 5 10 7 15 3 5 -3 7 -10
3 -15z"/>
<path d="M442 2043 c-12 -2 -27 -13 -32 -24 -6 -10 -19 -19 -29 -19 -32 0 -44
-26 -38 -80 3 -28 3 -50 -1 -50 -17 0 -32 25 -32 52 0 15 -4 28 -10 28 -5 0
-10 -10 -10 -22 -1 -29 -34 -75 -44 -60 -4 6 0 22 9 36 14 21 14 31 4 65 -9
31 -15 38 -25 30 -9 -7 -19 -3 -38 16 -32 32 -56 32 -95 -2 -29 -26 -43 -73
-21 -73 6 0 10 11 10 25 0 19 5 25 23 25 13 0 32 -6 43 -14 17 -13 19 -25 17
-98 -3 -100 17 -148 64 -148 38 0 60 -34 38 -56 -20 -21 -19 -31 5 -44 35 -19
83 24 50 45 -18 11 -11 35 13 44 13 5 36 24 50 41 24 28 27 40 27 101 0 89 19
139 54 139 26 0 47 -25 39 -47 -3 -7 0 -13 6 -13 22 0 10 46 -20 78 -16 17
-31 31 -32 31 -1 -1 -12 -4 -25 -6z m-242 -53 c0 -13 -6 -13 -41 5 -16 9 -27
20 -24 25 7 12 65 -16 65 -30z m275 32 c-6 -5 -23 -14 -40 -21 -30 -13 -30
-13 -11 8 11 12 28 21 40 21 11 0 16 -4 11 -8z m-225 -74 c0 -17 -3 -18 -14
-8 -8 6 -12 18 -9 26 7 19 23 7 23 -18z m127 -13 c-1 -25 -5 -45 -8 -45 -11 0
-20 50 -14 71 11 35 24 20 22 -26z m-156 -28 c-6 -6 -13 -9 -15 -6 -2 2 -8 17
-12 33 l-7 29 23 -23 c16 -16 19 -25 11 -33z m93 -40 c7 -7 16 -35 21 -62 4
-28 12 -53 18 -57 7 -4 0 -8 -15 -8 -27 0 -28 2 -28 56 0 51 -2 56 -20 51 -23
-6 -26 3 -8 21 15 15 17 15 32 -1z m86 9 c0 -3 -4 -8 -10 -11 -5 -3 -10 -1
-10 4 0 6 5 11 10 11 6 0 10 -2 10 -4z m-39 -59 c-17 -17 -22 -2 -9 29 11 28
12 29 16 5 2 -13 -1 -28 -7 -34z m-125 32 c3 -6 1 -16 -5 -22 -13 -13 -15 -47
-2 -47 4 0 20 11 36 26 27 25 48 26 27 1 -6 -7 -9 -23 -5 -35 4 -17 1 -22 -13
-23 -63 -4 -84 14 -84 73 0 31 4 38 19 38 11 0 23 -5 27 -11z m144 -64 c-13
-14 -26 -23 -28 -20 -3 3 5 16 18 30 13 14 26 23 28 20 3 -3 -5 -16 -18 -30z
m-70 -65 c0 -5 -4 -10 -10 -10 -5 0 -10 5 -10 10 0 6 5 10 10 10 6 0 10 -4 10
-10z m10 -65 c0 -8 -9 -15 -20 -15 -20 0 -26 11 -13 23 12 13 33 7 33 -8z"/>
</g>
</svg>
